<svg xmlns="http://www.w3.org/2000/svg" version="1.1" viewBox="0.00 0.00 84.00 85.00" width="84.00" height="85.00">
<g stroke-width="2.00" fill="none" stroke-linecap="butt">
<path stroke="#d16b70" vector-effect="non-scaling-stroke" d="&#10;  M 75.13 28.31&#10;  L 70.58 28.40&#10;  A 0.66 0.65 -76.7 0 1 69.99 27.44&#10;  L 70.88 25.77&#10;  Q 71.09 25.38 70.84 25.00&#10;  L 70.39 24.32&#10;  A 0.50 0.49 71.6 0 1 70.77 23.55&#10;  L 74.88 23.36&#10;  Q 75.39 23.34 75.67 23.76&#10;  L 76.71 25.33&#10;  A 0.49 0.49 0.0 0 0 77.58 25.23&#10;  Q 77.86 24.47 77.21 23.30&#10;  C 69.91 9.95 58.95 2.22 43.58 1.26&#10;  C 21.78 -0.09 2.30 15.97 0.95 37.99&#10;  Q -0.55 62.53 17.41 75.57&#10;  C 36.27 89.25 63.70 83.67 75.41 64.15&#10;  C 82.26 52.74 83.53 39.27 78.79 26.80&#10;  A 1.30 1.30 0.0 0 0 76.42 26.67&#10;  L 75.80 27.88&#10;  Q 75.59 28.30 75.13 28.31"/>
<path stroke="#d16b70" vector-effect="non-scaling-stroke" d="&#10;  M 34.72 7.79&#10;  L 34.76 9.02&#10;  Q 34.78 9.52 35.27 9.51&#10;  L 36.94 9.48&#10;  A 0.53 0.53 0.0 0 0 37.42 8.74&#10;  L 36.43 6.47&#10;  A 0.69 0.69 0.0 0 1 36.83 5.54&#10;  L 38.07 5.09&#10;  Q 38.87 4.80 38.30 4.16&#10;  Q 36.90 2.58 34.77 3.59&#10;  A 0.80 0.79 5.5 0 0 34.50 3.81&#10;  L 32.23 7.03&#10;  Q 31.76 7.70 32.56 7.53&#10;  L 33.98 7.22&#10;  A 0.61 0.61 0.0 0 1 34.72 7.79"/>
<path stroke="#d35b5e" vector-effect="non-scaling-stroke" d="&#10;  M 44.48 8.94&#10;  Q 47.00 8.59 49.27 9.86&#10;  A 0.55 0.55 0.0 0 0 49.93 9.00&#10;  Q 48.22 7.24 50.04 5.44&#10;  A 0.53 0.53 0.0 0 0 49.82 4.56&#10;  L 46.30 3.50&#10;  Q 45.85 3.36 45.51 3.70&#10;  Q 43.71 5.44 43.42 7.91&#10;  A 0.94 0.94 0.0 0 0 44.48 8.94"/>
<path stroke="#d16b70" vector-effect="non-scaling-stroke" d="&#10;  M 30.08 10.62&#10;  Q 27.12 9.56 25.41 6.96&#10;  Q 25.13 6.52 24.67 6.77&#10;  L 21.19 8.62&#10;  A 0.61 0.60 -27.4 0 0 20.93 9.42&#10;  L 22.74 13.22&#10;  Q 23.03 13.84 23.52 13.36&#10;  L 25.96 10.91&#10;  A 0.62 0.62 0.0 0 1 26.74 10.84&#10;  Q 28.36 11.91 30.10 11.11&#10;  A 0.27 0.27 0.0 0 0 30.08 10.62"/>
<path stroke="#d35b5e" vector-effect="non-scaling-stroke" d="&#10;  M 58.82 9.55&#10;  L 58.18 7.38&#10;  A 0.78 0.77 -31.2 0 0 56.87 7.06&#10;  L 54.52 9.53&#10;  Q 54.06 10.01 54.50 10.51&#10;  Q 56.01 12.22 58.24 11.20&#10;  A 0.35 0.35 0.0 0 1 58.68 11.71&#10;  L 57.94 12.81&#10;  A 0.76 0.75 39.4 0 0 58.04 13.76&#10;  L 58.30 14.03&#10;  Q 58.71 14.44 59.08 13.99&#10;  L 62.11 10.32&#10;  Q 62.50 9.84 61.95 9.57&#10;  Q 60.55 8.87 59.19 9.69&#10;  Q 58.91 9.86 58.82 9.55"/>
<path stroke="#d35b5e" vector-effect="non-scaling-stroke" d="&#10;  M 33.50 11.71&#10;  C -0.99 20.62 4.17 71.89 39.82 73.40&#10;  C 70.84 74.71 83.89 35.42 59.39 16.69"/>
<path stroke="#d16b70" vector-effect="non-scaling-stroke" d="&#10;  M 59.39 16.69&#10;  Q 47.48 8.46 33.50 11.71"/>
<path stroke="#e4aeb1" vector-effect="non-scaling-stroke" d="&#10;  M 59.39 16.69&#10;  C 58.85 17.44 57.74 17.44 56.97 16.94&#10;  Q 46.33 10.03 33.73 12.99&#10;  A 0.50 0.49 8.0 0 1 33.18 12.27&#10;  L 33.50 11.71"/>
<path stroke="#d16b70" vector-effect="non-scaling-stroke" d="&#10;  M 15.34 20.51&#10;  A 0.62 0.62 0.0 0 0 16.41 20.01&#10;  Q 16.00 16.27 19.61 16.95&#10;  Q 19.87 17.00 20.06 16.81&#10;  L 20.33 16.55&#10;  A 0.55 0.55 0.0 0 0 20.10 15.64&#10;  Q 17.80 14.95 16.63 12.87&#10;  A 0.79 0.78 -17.4 0 0 15.87 12.48&#10;  L 14.98 12.57&#10;  A 0.38 0.38 0.0 0 0 14.70 13.15&#10;  L 15.48 14.38&#10;  Q 15.84 14.94 15.24 15.25&#10;  L 12.62 16.61&#10;  A 0.60 0.60 0.0 0 0 12.47 17.56&#10;  L 15.34 20.51"/>
<path stroke="#d16b70" vector-effect="non-scaling-stroke" d="&#10;  M 63.23 16.34&#10;  C 67.15 16.51 64.14 20.80 67.66 20.94&#10;  Q 68.27 20.96 68.06 20.39&#10;  L 67.34 18.40&#10;  Q 67.18 17.95 67.52 17.61&#10;  Q 68.61 16.53 68.50 15.01&#10;  Q 68.47 14.54 68.01 14.50&#10;  Q 66.74 14.40 65.59 15.05&#10;  A 0.91 0.86 -54.9 0 1 65.11 15.15&#10;  Q 63.87 15.05 63.03 15.73&#10;  Q 62.32 16.31 63.23 16.34"/>
<path stroke="#c12328" vector-effect="non-scaling-stroke" d="&#10;  M 6.57 27.33&#10;  Q 7.09 28.00 7.45 27.96"/>
<path stroke="#d16b70" vector-effect="non-scaling-stroke" d="&#10;  M 7.45 27.96&#10;  Q 8.03 29.40 9.21 30.19&#10;  Q 9.90 30.65 10.32 30.28&#10;  Q 10.74 29.91 10.82 28.96"/>
<path stroke="#c12328" vector-effect="non-scaling-stroke" d="&#10;  M 10.82 28.96&#10;  L 11.67 27.05"/>
<path stroke="#d16b70" vector-effect="non-scaling-stroke" d="&#10;  M 11.67 27.05&#10;  L 13.53 24.46&#10;  A 0.27 0.27 0.0 0 0 13.27 24.04&#10;  L 10.44 24.53&#10;  A 0.77 0.76 79.1 0 1 9.56 23.93&#10;  L 9.06 21.63&#10;  A 0.35 0.35 0.0 0 0 8.41 21.54&#10;  L 5.73 26.61&#10;  A 0.43 0.43 0.0 0 0 6.03 27.23&#10;  L 6.57 27.33"/>
<path stroke="#d2777b" vector-effect="non-scaling-stroke" d="&#10;  M 11.67 27.05&#10;  C 10.08 27.44 9.84 25.72 8.47 25.77&#10;  Q 7.37 25.82 6.57 27.33"/>
<path stroke="#d2777b" vector-effect="non-scaling-stroke" d="&#10;  M 10.82 28.96&#10;  Q 9.85 26.69 7.45 27.96"/>
<path stroke="#d35b5e" vector-effect="non-scaling-stroke" d="&#10;  M 6.95 35.01&#10;  A 1.11 1.11 0.0 0 0 5.84 33.90&#10;  A 1.11 1.11 0.0 0 0 4.73 35.01&#10;  A 1.11 1.11 0.0 0 0 5.84 36.12&#10;  A 1.11 1.11 0.0 0 0 6.95 35.01"/>
<path stroke="#d35b5e" vector-effect="non-scaling-stroke" d="&#10;  M 77.4625 35.2156&#10;  A 1.20 1.03 12.3 0 0 76.5094 33.9536&#10;  A 1.20 1.03 12.3 0 0 75.1175 34.7044&#10;  A 1.20 1.03 12.3 0 0 76.0706 35.9664&#10;  A 1.20 1.03 12.3 0 0 77.4625 35.2156"/>
<path stroke="#c12328" vector-effect="non-scaling-stroke" d="&#10;  M 4.94 52.68&#10;  L 6.09 55.72"/>
<path stroke="#ce4548" vector-effect="non-scaling-stroke" d="&#10;  M 6.09 55.72&#10;  Q 7.74 61.67 12.83 66.89"/>
<path stroke="#c12328" vector-effect="non-scaling-stroke" d="&#10;  M 12.83 66.89&#10;  L 14.51 68.57"/>
<path stroke="#ce4548" vector-effect="non-scaling-stroke" d="&#10;  M 14.51 68.57&#10;  L 15.87 69.70&#10;  A 1.49 1.49 0.0 0 0 18.01 67.67&#10;  L 16.15 65.15"/>
<path stroke="#c12328" vector-effect="non-scaling-stroke" d="&#10;  M 16.15 65.15&#10;  Q 15.98 64.73 15.35 64.26"/>
<path stroke="#ce4548" vector-effect="non-scaling-stroke" d="&#10;  M 15.35 64.26&#10;  L 10.49 56.25"/>
<path stroke="#c12328" vector-effect="non-scaling-stroke" d="&#10;  M 10.49 56.25&#10;  Q 10.20 54.59 9.11 53.30"/>
<path stroke="#ce4548" vector-effect="non-scaling-stroke" d="&#10;  M 9.11 53.30&#10;  Q 8.96 52.77 8.65 52.47"/>
<path stroke="#c12328" vector-effect="non-scaling-stroke" d="&#10;  M 8.65 52.47&#10;  Q 8.97 51.52 8.54 50.63"/>
<path stroke="#ce4548" vector-effect="non-scaling-stroke" d="&#10;  M 8.54 50.63&#10;  L 6.96 42.31&#10;  Q 6.82 41.60 6.12 41.70&#10;  L 4.14 41.97&#10;  A 0.61 0.60 82.7 0 0 3.63 42.64&#10;  L 4.94 52.68"/>
<path stroke="#cf5154" vector-effect="non-scaling-stroke" d="&#10;  M 8.54 50.63&#10;  Q 6.87 50.80 4.94 52.68"/>
<path stroke="#cf5154" vector-effect="non-scaling-stroke" d="&#10;  M 8.65 52.47&#10;  Q 7.15 52.28 6.09 55.72"/>
<path stroke="#cf5154" vector-effect="non-scaling-stroke" d="&#10;  M 9.11 53.30&#10;  Q 8.76 54.94 7.47 56.49&#10;  Q 7.05 57.00 7.52 57.46&#10;  Q 8.46 58.36 10.49 56.25"/>
<path stroke="#cf5154" vector-effect="non-scaling-stroke" d="&#10;  M 15.35 64.26&#10;  Q 13.81 65.30 12.83 66.89"/>
<path stroke="#cf5154" vector-effect="non-scaling-stroke" d="&#10;  M 16.15 65.15&#10;  L 14.51 68.57"/>
<path stroke="#d35b5e" vector-effect="non-scaling-stroke" d="&#10;  M 73.02 54.93&#10;  L 72.12 56.35"/>
<path stroke="#c12328" vector-effect="non-scaling-stroke" d="&#10;  M 72.12 56.35&#10;  L 71.24 58.11"/>
<path stroke="#ce4548" vector-effect="non-scaling-stroke" d="&#10;  M 71.24 58.11&#10;  L 70.37 59.53"/>
<path stroke="#c12328" vector-effect="non-scaling-stroke" d="&#10;  M 70.37 59.53&#10;  L 68.31 62.56"/>
<path stroke="#ce4548" vector-effect="non-scaling-stroke" d="&#10;  M 68.31 62.56&#10;  Q 65.35 66.76 60.92 69.77&#10;  Q 60.49 70.06 60.69 70.54&#10;  Q 61.62 72.74 63.77 72.25&#10;  Q 64.30 72.12 64.59 71.66&#10;  C 66.60 68.49 69.58 66.81 72.12 62.39"/>
<path stroke="#c12328" vector-effect="non-scaling-stroke" d="&#10;  M 72.12 62.39&#10;  Q 72.50 61.89 72.50 61.53"/>
<path stroke="#ce4548" vector-effect="non-scaling-stroke" d="&#10;  M 72.50 61.53&#10;  Q 74.13 60.87 74.00 59.30"/>
<path stroke="#c12328" vector-effect="non-scaling-stroke" d="&#10;  M 74.00 59.30&#10;  Q 74.63 59.04 74.52 58.03"/>
<path stroke="#d35b5e" vector-effect="non-scaling-stroke" d="&#10;  M 74.52 58.03&#10;  Q 75.20 57.63 75.64 56.18"/>
<path stroke="#ce4548" vector-effect="non-scaling-stroke" d="&#10;  M 75.64 56.18&#10;  L 76.99 50.06&#10;  Q 77.15 49.37 76.46 49.24&#10;  Q 76.27 49.21 76.15 49.03&#10;  A 0.52 0.52 0.0 0 1 76.52 48.21&#10;  Q 77.37 48.12 77.65 47.48&#10;  Q 77.88 46.98 77.43 46.68&#10;  L 76.12 45.80&#10;  A 0.55 0.54 51.7 0 1 76.23 44.84&#10;  L 78.05 44.15&#10;  A 0.59 0.59 0.0 0 0 78.05 43.05&#10;  L 76.14 42.34&#10;  Q 75.31 42.03 75.23 42.92&#10;  L 74.44 51.56&#10;  Q 74.40 51.99 74.10 52.30&#10;  Q 73.08 53.30 73.02 54.93"/>
<path stroke="#e0888a" vector-effect="non-scaling-stroke" d="&#10;  M 75.64 56.18&#10;  L 73.02 54.93"/>
<path stroke="#d46769" vector-effect="non-scaling-stroke" d="&#10;  M 74.52 58.03&#10;  L 72.12 56.35"/>
<path stroke="#cf5154" vector-effect="non-scaling-stroke" d="&#10;  M 74.00 59.30&#10;  Q 72.61 59.26 71.24 58.11"/>
<path stroke="#cf5154" vector-effect="non-scaling-stroke" d="&#10;  M 72.50 61.53&#10;  L 70.37 59.53"/>
<path stroke="#cf5154" vector-effect="non-scaling-stroke" d="&#10;  M 72.12 62.39&#10;  Q 69.68 61.25 68.31 62.56"/>
<path stroke="#ce4548" vector-effect="non-scaling-stroke" d="&#10;  M 29.24 75.10&#10;  A 0.91 0.91 0.0 0 0 28.66 74.16&#10;  Q 25.01 72.78 22.17 70.20&#10;  Q 21.68 69.76 21.30 70.30&#10;  L 19.65 72.63&#10;  Q 19.22 73.23 19.95 73.33&#10;  C 22.40 73.67 23.35 75.40 25.21 76.32&#10;  Q 26.82 77.12 28.41 78.05&#10;  Q 28.88 78.33 28.94 77.79&#10;  L 29.24 75.10"/>
<path stroke="#ce4548" vector-effect="non-scaling-stroke" d="&#10;  M 57.34 73.81&#10;  L 58.17 72.16&#10;  A 0.29 0.29 0.0 0 0 57.74 71.79&#10;  C 52.81 75.33 47.08 75.63 41.58 76.75&#10;  A 1.68 1.68 0.0 0 0 42.01 80.07&#10;  Q 42.69 80.03 43.37 80.24&#10;  A 0.37 0.37 0.0 0 0 43.73 79.60&#10;  Q 42.77 78.77 43.04 77.45&#10;  A 0.65 0.65 0.0 0 1 43.98 77.01&#10;  L 44.95 77.54&#10;  Q 45.27 77.71 45.26 78.08&#10;  L 45.22 79.73&#10;  Q 45.20 80.60 46.02 80.30&#10;  L 58.67 75.69&#10;  Q 59.41 75.43 58.72 75.05&#10;  L 57.53 74.40&#10;  Q 57.15 74.19 57.34 73.81"/>
<path stroke="#ce4548" vector-effect="non-scaling-stroke" d="&#10;  M 37.93 79.92&#10;  Q 38.55 80.10 39.20 79.99&#10;  Q 39.68 79.91 39.64 79.42&#10;  L 39.44 76.95&#10;  A 0.57 0.56 2.6 0 0 38.96 76.43&#10;  L 31.08 75.21&#10;  Q 30.69 75.15 30.74 75.54&#10;  L 31.10 78.55&#10;  A 0.37 0.37 0.0 0 0 31.80 78.66&#10;  L 32.71 76.76&#10;  A 0.76 0.75 -65.2 0 1 33.70 76.39&#10;  Q 35.17 77.05 34.20 78.55&#10;  A 0.65 0.65 0.0 0 0 34.70 79.56&#10;  Q 35.92 79.65 37.21 79.78&#10;  Q 37.57 79.82 37.93 79.92"/>
<path stroke="#f2cfcf" vector-effect="non-scaling-stroke" d="&#10;  M 41.0112 70.3498&#10;  A 28.31 27.86 90.2 0 0 68.9698 42.1372&#10;  A 28.31 27.86 90.2 0 0 41.2088 13.7302&#10;  A 28.31 27.86 90.2 0 0 13.2502 41.9428&#10;  A 28.31 27.86 90.2 0 0 41.0112 70.3498"/>
<path stroke="#e19799" vector-effect="non-scaling-stroke" d="&#10;  M 44.06 17.19&#10;  C 42.23 15.91 41.39 15.03 39.15 16.51&#10;  Q 19.99 29.25 18.15 52.73&#10;  C 18.02 54.37 18.38 55.45 19.87 56.32&#10;  C 32.71 63.86 49.01 63.45 62.03 56.71&#10;  C 63.70 55.85 64.12 55.09 64.01 53.26&#10;  Q 62.55 30.07 44.06 17.19"/>
<path stroke="#f1dfe2" vector-effect="non-scaling-stroke" d="&#10;  M 43.69 67.47&#10;  L 45.03 67.57"/>
<path stroke="#f2cfcf" vector-effect="non-scaling-stroke" d="&#10;  M 45.03 67.57&#10;  Q 46.24 68.59 46.93 67.69&#10;  A 1.93 1.92 -63.1 0 0 45.94 64.66&#10;  Q 45.39 64.50 44.93 65.22"/>
<path stroke="#f1dfe2" vector-effect="non-scaling-stroke" d="&#10;  M 44.93 65.22&#10;  Q 43.79 65.75 44.07 65.27"/>
<path stroke="#edb9ba" vector-effect="non-scaling-stroke" d="&#10;  M 44.07 65.27&#10;  Q 41.36 64.05 38.89 64.97&#10;  A 1.30 1.30 0.0 0 0 39.35 67.48&#10;  L 43.69 67.47"/>
<path stroke="#df989c" vector-effect="non-scaling-stroke" d="&#10;  M 44.07 65.27&#10;  Q 44.29 66.59 43.69 67.47"/>
<path stroke="#e4aeb1" vector-effect="non-scaling-stroke" d="&#10;  M 45.03 67.57&#10;  Q 45.58 66.63 44.93 65.22"/>
<path stroke="#f2cfcf" vector-effect="non-scaling-stroke" d="&#10;  M 36.8200 68.0068&#10;  A 1.55 0.91 86.3 0 0 37.6281 66.4013&#10;  A 1.55 0.91 86.3 0 0 36.6200 64.9132&#10;  A 1.55 0.91 86.3 0 0 35.8119 66.5187&#10;  A 1.55 0.91 86.3 0 0 36.8200 68.0068"/>
<path stroke="#e19799" vector-effect="non-scaling-stroke" d="&#10;  M 21.19 54.93&#10;  C 33.48 61.55 48.55 61.43 60.88 55.15&#10;  Q 62.28 54.44 62.14 52.78&#10;  Q 60.34 30.40 42.21 18.29&#10;  A 2.03 2.03 0.0 0 0 39.94 18.30&#10;  Q 21.74 30.67 20.10 52.93&#10;  A 2.10 2.10 0.0 0 0 21.19 54.93"/>
<path stroke="#e08b8e" vector-effect="non-scaling-stroke" d="&#10;  M 22.49 54.00&#10;  C 28.08 56.90 34.72 57.52 40.66 55.30&#10;  Q 41.11 55.13 41.56 55.29&#10;  Q 51.11 58.63 60.00 53.87&#10;  Q 60.49 53.61 60.51 53.05&#10;  C 60.75 45.64 57.58 41.01 52.69 35.77&#10;  Q 52.36 35.41 52.25 34.94&#10;  Q 50.15 25.39 42.24 19.73&#10;  A 1.81 1.79 -44.1 0 0 40.19 19.71&#10;  Q 32.04 25.20 30.11 34.87&#10;  A 1.78 1.76 -16.0 0 1 29.56 35.85&#10;  Q 22.33 42.43 21.54 52.28&#10;  A 1.79 1.79 0.0 0 0 22.49 54.00"/>
<path stroke="#df8083" vector-effect="non-scaling-stroke" d="&#10;  M 48.49 35.24&#10;  A 0.35 0.35 0.0 0 0 48.85 34.64&#10;  Q 46.23 32.42 42.87 31.53&#10;  A 0.84 0.84 0.0 0 1 42.25 30.72&#10;  L 42.25 25.98&#10;  A 1.16 1.16 0.0 0 0 40.01 25.54&#10;  C 39.62 26.50 40.15 29.23 39.88 31.04&#10;  Q 39.81 31.53 39.32 31.63&#10;  Q 36.14 32.31 33.64 34.39&#10;  A 0.40 0.40 0.0 0 0 34.03 35.07&#10;  Q 41.29 32.31 48.49 35.24"/>
<path stroke="#df8083" vector-effect="non-scaling-stroke" d="&#10;  M 50.92 45.52&#10;  Q 52.23 42.40 51.41 39.16&#10;  A 0.37 0.37 0.0 0 0 50.69 39.20&#10;  Q 49.55 46.91 43.55 51.80&#10;  A 0.54 0.54 0.0 0 0 44.20 52.67&#10;  L 49.91 48.75&#10;  A 0.50 0.50 0.0 0 1 50.42 48.73&#10;  L 54.98 51.30&#10;  A 0.84 0.84 0.0 0 0 56.22 50.73&#10;  Q 56.42 49.75 55.14 49.14&#10;  Q 52.94 48.08 51.13 46.45&#10;  Q 50.69 46.06 50.92 45.52"/>
<path stroke="#df8083" vector-effect="non-scaling-stroke" d="&#10;  M 32.78 48.80&#10;  C 34.56 50.37 36.79 52.27 38.94 52.59&#10;  A 0.25 0.25 0.0 0 0 39.13 52.15&#10;  Q 32.98 47.22 31.60 39.42&#10;  A 0.49 0.49 0.0 0 0 30.64 39.42&#10;  Q 30.05 42.46 31.22 45.25&#10;  A 1.29 1.29 0.0 0 1 30.74 46.83&#10;  Q 28.73 48.14 26.67 49.47&#10;  Q 25.02 50.53 26.99 51.25&#10;  A 0.96 0.95 39.6 0 0 27.81 51.18&#10;  L 31.91 48.73&#10;  A 0.74 0.74 0.0 0 1 32.78 48.80"/>
</g>
<path fill="#e3bfc4" fill-opacity="0.996" d="&#10;  M 38.83 0.00&#10;  L 44.54 0.00&#10;  C 64.37 1.76 79.14 15.44 82.59 34.82&#10;  C 86.70 57.88 70.09 82.22 46.15 84.10&#10;  C 36.59 84.85 27.77 83.78 19.42 78.60&#10;  Q 4.77 69.51 0.52 52.93&#10;  C 0.07 51.18 0.44 49.09 0.00 47.17&#10;  L 0.00 36.93&#10;  C 0.39 19.69 14.39 5.57 30.26 0.97&#10;  Q 32.40 0.34 38.83 0.00&#10;  Z&#10;  M 75.13 28.31&#10;  L 70.58 28.40&#10;  A 0.66 0.65 -76.7 0 1 69.99 27.44&#10;  L 70.88 25.77&#10;  Q 71.09 25.38 70.84 25.00&#10;  L 70.39 24.32&#10;  A 0.50 0.49 71.6 0 1 70.77 23.55&#10;  L 74.88 23.36&#10;  Q 75.39 23.34 75.67 23.76&#10;  L 76.71 25.33&#10;  A 0.49 0.49 0.0 0 0 77.58 25.23&#10;  Q 77.86 24.47 77.21 23.30&#10;  C 69.91 9.95 58.95 2.22 43.58 1.26&#10;  C 21.78 -0.09 2.30 15.97 0.95 37.99&#10;  Q -0.55 62.53 17.41 75.57&#10;  C 36.27 89.25 63.70 83.67 75.41 64.15&#10;  C 82.26 52.74 83.53 39.27 78.79 26.80&#10;  A 1.30 1.30 0.0 0 0 76.42 26.67&#10;  L 75.80 27.88&#10;  Q 75.59 28.30 75.13 28.31&#10;  Z"/>
<path fill="#c0171c" d="&#10;  M 75.80 27.88&#10;  L 76.42 26.67&#10;  A 1.30 1.30 0.0 0 1 78.79 26.80&#10;  C 83.53 39.27 82.26 52.74 75.41 64.15&#10;  C 63.70 83.67 36.27 89.25 17.41 75.57&#10;  Q -0.55 62.53 0.95 37.99&#10;  C 2.30 15.97 21.78 -0.09 43.58 1.26&#10;  C 58.95 2.22 69.91 9.95 77.21 23.30&#10;  Q 77.86 24.47 77.58 25.23&#10;  A 0.49 0.49 0.0 0 1 76.71 25.33&#10;  L 75.67 23.76&#10;  Q 75.39 23.34 74.88 23.36&#10;  L 70.77 23.55&#10;  A 0.50 0.49 71.6 0 0 70.39 24.32&#10;  L 70.84 25.00&#10;  Q 71.09 25.38 70.88 25.77&#10;  L 69.99 27.44&#10;  A 0.66 0.65 -76.7 0 0 70.58 28.40&#10;  L 75.13 28.31&#10;  Q 75.59 28.30 75.80 27.88&#10;  Z&#10;  M 34.72 7.79&#10;  L 34.76 9.02&#10;  Q 34.78 9.52 35.27 9.51&#10;  L 36.94 9.48&#10;  A 0.53 0.53 0.0 0 0 37.42 8.74&#10;  L 36.43 6.47&#10;  A 0.69 0.69 0.0 0 1 36.83 5.54&#10;  L 38.07 5.09&#10;  Q 38.87 4.80 38.30 4.16&#10;  Q 36.90 2.58 34.77 3.59&#10;  A 0.80 0.79 5.5 0 0 34.50 3.81&#10;  L 32.23 7.03&#10;  Q 31.76 7.70 32.56 7.53&#10;  L 33.98 7.22&#10;  A 0.61 0.61 0.0 0 1 34.72 7.79&#10;  Z&#10;  M 44.48 8.94&#10;  Q 47.00 8.59 49.27 9.86&#10;  A 0.55 0.55 0.0 0 0 49.93 9.00&#10;  Q 48.22 7.24 50.04 5.44&#10;  A 0.53 0.53 0.0 0 0 49.82 4.56&#10;  L 46.30 3.50&#10;  Q 45.85 3.36 45.51 3.70&#10;  Q 43.71 5.44 43.42 7.91&#10;  A 0.94 0.94 0.0 0 0 44.48 8.94&#10;  Z&#10;  M 30.08 10.62&#10;  Q 27.12 9.56 25.41 6.96&#10;  Q 25.13 6.52 24.67 6.77&#10;  L 21.19 8.62&#10;  A 0.61 0.60 -27.4 0 0 20.93 9.42&#10;  L 22.74 13.22&#10;  Q 23.03 13.84 23.52 13.36&#10;  L 25.96 10.91&#10;  A 0.62 0.62 0.0 0 1 26.74 10.84&#10;  Q 28.36 11.91 30.10 11.11&#10;  A 0.27 0.27 0.0 0 0 30.08 10.62&#10;  Z&#10;  M 58.82 9.55&#10;  L 58.18 7.38&#10;  A 0.78 0.77 -31.2 0 0 56.87 7.06&#10;  L 54.52 9.53&#10;  Q 54.06 10.01 54.50 10.51&#10;  Q 56.01 12.22 58.24 11.20&#10;  A 0.35 0.35 0.0 0 1 58.68 11.71&#10;  L 57.94 12.81&#10;  A 0.76 0.75 39.4 0 0 58.04 13.76&#10;  L 58.30 14.03&#10;  Q 58.71 14.44 59.08 13.99&#10;  L 62.11 10.32&#10;  Q 62.50 9.84 61.95 9.57&#10;  Q 60.55 8.87 59.19 9.69&#10;  Q 58.91 9.86 58.82 9.55&#10;  Z&#10;  M 33.50 11.71&#10;  C -0.99 20.62 4.17 71.89 39.82 73.40&#10;  C 70.84 74.71 83.89 35.42 59.39 16.69&#10;  Q 47.48 8.46 33.50 11.71&#10;  Z&#10;  M 15.34 20.51&#10;  A 0.62 0.62 0.0 0 0 16.41 20.01&#10;  Q 16.00 16.27 19.61 16.95&#10;  Q 19.87 17.00 20.06 16.81&#10;  L 20.33 16.55&#10;  A 0.55 0.55 0.0 0 0 20.10 15.64&#10;  Q 17.80 14.95 16.63 12.87&#10;  A 0.79 0.78 -17.4 0 0 15.87 12.48&#10;  L 14.98 12.57&#10;  A 0.38 0.38 0.0 0 0 14.70 13.15&#10;  L 15.48 14.38&#10;  Q 15.84 14.94 15.24 15.25&#10;  L 12.62 16.61&#10;  A 0.60 0.60 0.0 0 0 12.47 17.56&#10;  L 15.34 20.51&#10;  Z&#10;  M 63.23 16.34&#10;  C 67.15 16.51 64.14 20.80 67.66 20.94&#10;  Q 68.27 20.96 68.06 20.39&#10;  L 67.34 18.40&#10;  Q 67.18 17.95 67.52 17.61&#10;  Q 68.61 16.53 68.50 15.01&#10;  Q 68.47 14.54 68.01 14.50&#10;  Q 66.74 14.40 65.59 15.05&#10;  A 0.91 0.86 -54.9 0 1 65.11 15.15&#10;  Q 63.87 15.05 63.03 15.73&#10;  Q 62.32 16.31 63.23 16.34&#10;  Z&#10;  M 6.57 27.33&#10;  Q 7.09 28.00 7.45 27.96&#10;  Q 8.03 29.40 9.21 30.19&#10;  Q 9.90 30.65 10.32 30.28&#10;  Q 10.74 29.91 10.82 28.96&#10;  L 11.67 27.05&#10;  L 13.53 24.46&#10;  A 0.27 0.27 0.0 0 0 13.27 24.04&#10;  L 10.44 24.53&#10;  A 0.77 0.76 79.1 0 1 9.56 23.93&#10;  L 9.06 21.63&#10;  A 0.35 0.35 0.0 0 0 8.41 21.54&#10;  L 5.73 26.61&#10;  A 0.43 0.43 0.0 0 0 6.03 27.23&#10;  L 6.57 27.33&#10;  Z&#10;  M 6.95 35.01&#10;  A 1.11 1.11 0.0 0 0 5.84 33.90&#10;  A 1.11 1.11 0.0 0 0 4.73 35.01&#10;  A 1.11 1.11 0.0 0 0 5.84 36.12&#10;  A 1.11 1.11 0.0 0 0 6.95 35.01&#10;  Z&#10;  M 77.4625 35.2156&#10;  A 1.20 1.03 12.3 0 0 76.5094 33.9536&#10;  A 1.20 1.03 12.3 0 0 75.1175 34.7044&#10;  A 1.20 1.03 12.3 0 0 76.0706 35.9664&#10;  A 1.20 1.03 12.3 0 0 77.4625 35.2156&#10;  Z&#10;  M 4.94 52.68&#10;  L 6.09 55.72&#10;  Q 7.74 61.67 12.83 66.89&#10;  L 14.51 68.57&#10;  L 15.87 69.70&#10;  A 1.49 1.49 0.0 0 0 18.01 67.67&#10;  L 16.15 65.15&#10;  Q 15.98 64.73 15.35 64.26&#10;  L 10.49 56.25&#10;  Q 10.20 54.59 9.11 53.30&#10;  Q 8.96 52.77 8.65 52.47&#10;  Q 8.97 51.52 8.54 50.63&#10;  L 6.96 42.31&#10;  Q 6.82 41.60 6.12 41.70&#10;  L 4.14 41.97&#10;  A 0.61 0.60 82.7 0 0 3.63 42.64&#10;  L 4.94 52.68&#10;  Z&#10;  M 73.02 54.93&#10;  L 72.12 56.35&#10;  L 71.24 58.11&#10;  L 70.37 59.53&#10;  L 68.31 62.56&#10;  Q 65.35 66.76 60.92 69.77&#10;  Q 60.49 70.06 60.69 70.54&#10;  Q 61.62 72.74 63.77 72.25&#10;  Q 64.30 72.12 64.59 71.66&#10;  C 66.60 68.49 69.58 66.81 72.12 62.39&#10;  Q 72.50 61.89 72.50 61.53&#10;  Q 74.13 60.87 74.00 59.30&#10;  Q 74.63 59.04 74.52 58.03&#10;  Q 75.20 57.63 75.64 56.18&#10;  L 76.99 50.06&#10;  Q 77.15 49.37 76.46 49.24&#10;  Q 76.27 49.21 76.15 49.03&#10;  A 0.52 0.52 0.0 0 1 76.52 48.21&#10;  Q 77.37 48.12 77.65 47.48&#10;  Q 77.88 46.98 77.43 46.68&#10;  L 76.12 45.80&#10;  A 0.55 0.54 51.7 0 1 76.23 44.84&#10;  L 78.05 44.15&#10;  A 0.59 0.59 0.0 0 0 78.05 43.05&#10;  L 76.14 42.34&#10;  Q 75.31 42.03 75.23 42.92&#10;  L 74.44 51.56&#10;  Q 74.40 51.99 74.10 52.30&#10;  Q 73.08 53.30 73.02 54.93&#10;  Z&#10;  M 29.24 75.10&#10;  A 0.91 0.91 0.0 0 0 28.66 74.16&#10;  Q 25.01 72.78 22.17 70.20&#10;  Q 21.68 69.76 21.30 70.30&#10;  L 19.65 72.63&#10;  Q 19.22 73.23 19.95 73.33&#10;  C 22.40 73.67 23.35 75.40 25.21 76.32&#10;  Q 26.82 77.12 28.41 78.05&#10;  Q 28.88 78.33 28.94 77.79&#10;  L 29.24 75.10&#10;  Z&#10;  M 57.34 73.81&#10;  L 58.17 72.16&#10;  A 0.29 0.29 0.0 0 0 57.74 71.79&#10;  C 52.81 75.33 47.08 75.63 41.58 76.75&#10;  A 1.68 1.68 0.0 0 0 42.01 80.07&#10;  Q 42.69 80.03 43.37 80.24&#10;  A 0.37 0.37 0.0 0 0 43.73 79.60&#10;  Q 42.77 78.77 43.04 77.45&#10;  A 0.65 0.65 0.0 0 1 43.98 77.01&#10;  L 44.95 77.54&#10;  Q 45.27 77.71 45.26 78.08&#10;  L 45.22 79.73&#10;  Q 45.20 80.60 46.02 80.30&#10;  L 58.67 75.69&#10;  Q 59.41 75.43 58.72 75.05&#10;  L 57.53 74.40&#10;  Q 57.15 74.19 57.34 73.81&#10;  Z&#10;  M 37.93 79.92&#10;  Q 38.55 80.10 39.20 79.99&#10;  Q 39.68 79.91 39.64 79.42&#10;  L 39.44 76.95&#10;  A 0.57 0.56 2.6 0 0 38.96 76.43&#10;  L 31.08 75.21&#10;  Q 30.69 75.15 30.74 75.54&#10;  L 31.10 78.55&#10;  A 0.37 0.37 0.0 0 0 31.80 78.66&#10;  L 32.71 76.76&#10;  A 0.76 0.75 -65.2 0 1 33.70 76.39&#10;  Q 35.17 77.05 34.20 78.55&#10;  A 0.65 0.65 0.0 0 0 34.70 79.56&#10;  Q 35.92 79.65 37.21 79.78&#10;  Q 37.57 79.82 37.93 79.92&#10;  Z"/>
<path fill="#e3bfc4" fill-opacity="0.996" d="&#10;  M 33.98 7.22&#10;  L 32.56 7.53&#10;  Q 31.76 7.70 32.23 7.03&#10;  L 34.50 3.81&#10;  A 0.80 0.79 5.5 0 1 34.77 3.59&#10;  Q 36.90 2.58 38.30 4.16&#10;  Q 38.87 4.80 38.07 5.09&#10;  L 36.83 5.54&#10;  A 0.69 0.69 0.0 0 0 36.43 6.47&#10;  L 37.42 8.74&#10;  A 0.53 0.53 0.0 0 1 36.94 9.48&#10;  L 35.27 9.51&#10;  Q 34.78 9.52 34.76 9.02&#10;  L 34.72 7.79&#10;  A 0.61 0.61 0.0 0 0 33.98 7.22&#10;  Z"/>
<path fill="#e59e9f" d="&#10;  M 44.48 8.94&#10;  A 0.94 0.94 0.0 0 1 43.42 7.91&#10;  Q 43.71 5.44 45.51 3.70&#10;  Q 45.85 3.36 46.30 3.50&#10;  L 49.82 4.56&#10;  A 0.53 0.53 0.0 0 1 50.04 5.44&#10;  Q 48.22 7.24 49.93 9.00&#10;  A 0.55 0.55 0.0 0 1 49.27 9.86&#10;  Q 47.00 8.59 44.48 8.94&#10;  Z"/>
<path fill="#e3bfc4" fill-opacity="0.996" d="&#10;  M 30.08 10.62&#10;  A 0.27 0.27 0.0 0 1 30.10 11.11&#10;  Q 28.36 11.91 26.74 10.84&#10;  A 0.62 0.62 0.0 0 0 25.96 10.91&#10;  L 23.52 13.36&#10;  Q 23.03 13.84 22.74 13.22&#10;  L 20.93 9.42&#10;  A 0.61 0.60 -27.4 0 1 21.19 8.62&#10;  L 24.67 6.77&#10;  Q 25.13 6.52 25.41 6.96&#10;  Q 27.12 9.56 30.08 10.62&#10;  Z"/>
<path fill="#e59e9f" d="&#10;  M 59.19 9.69&#10;  Q 60.55 8.87 61.95 9.57&#10;  Q 62.50 9.84 62.11 10.32&#10;  L 59.08 13.99&#10;  Q 58.71 14.44 58.30 14.03&#10;  L 58.04 13.76&#10;  A 0.76 0.75 39.4 0 1 57.94 12.81&#10;  L 58.68 11.71&#10;  A 0.35 0.35 0.0 0 0 58.24 11.20&#10;  Q 56.01 12.22 54.50 10.51&#10;  Q 54.06 10.01 54.52 9.53&#10;  L 56.87 7.06&#10;  A 0.78 0.77 -31.2 0 1 58.18 7.38&#10;  L 58.82 9.55&#10;  Q 58.91 9.86 59.19 9.69&#10;  Z"/>
<path fill="#e3bfc4" fill-opacity="0.996" d="&#10;  M 59.39 16.69&#10;  C 58.85 17.44 57.74 17.44 56.97 16.94&#10;  Q 46.33 10.03 33.73 12.99&#10;  A 0.50 0.49 8.0 0 1 33.18 12.27&#10;  L 33.50 11.71&#10;  Q 47.48 8.46 59.39 16.69&#10;  Z"/>
<path fill="#e59e9f" d="&#10;  M 33.50 11.71&#10;  L 33.18 12.27&#10;  A 0.50 0.49 8.0 0 0 33.73 12.99&#10;  Q 46.33 10.03 56.97 16.94&#10;  C 57.74 17.44 58.85 17.44 59.39 16.69&#10;  C 83.89 35.42 70.84 74.71 39.82 73.40&#10;  C 4.17 71.89 -0.99 20.62 33.50 11.71&#10;  Z&#10;  M 41.0112 70.3498&#10;  A 28.31 27.86 90.2 0 0 68.9698 42.1372&#10;  A 28.31 27.86 90.2 0 0 41.2088 13.7302&#10;  A 28.31 27.86 90.2 0 0 13.2502 41.9428&#10;  A 28.31 27.86 90.2 0 0 41.0112 70.3498&#10;  Z"/>
<path fill="#e3bfc4" fill-opacity="0.996" d="&#10;  M 15.34 20.51&#10;  L 12.47 17.56&#10;  A 0.60 0.60 0.0 0 1 12.62 16.61&#10;  L 15.24 15.25&#10;  Q 15.84 14.94 15.48 14.38&#10;  L 14.70 13.15&#10;  A 0.38 0.38 0.0 0 1 14.98 12.57&#10;  L 15.87 12.48&#10;  A 0.79 0.78 -17.4 0 1 16.63 12.87&#10;  Q 17.80 14.95 20.10 15.64&#10;  A 0.55 0.55 0.0 0 1 20.33 16.55&#10;  L 20.06 16.81&#10;  Q 19.87 17.00 19.61 16.95&#10;  Q 16.00 16.27 16.41 20.01&#10;  A 0.62 0.62 0.0 0 1 15.34 20.51&#10;  Z"/>
<path fill="#ffffff" d="&#10;  M 41.0112 70.3498&#10;  A 28.31 27.86 90.2 0 1 13.2502 41.9428&#10;  A 28.31 27.86 90.2 0 1 41.2088 13.7302&#10;  A 28.31 27.86 90.2 0 1 68.9698 42.1372&#10;  A 28.31 27.86 90.2 0 1 41.0112 70.3498&#10;  Z&#10;  M 44.06 17.19&#10;  C 42.23 15.91 41.39 15.03 39.15 16.51&#10;  Q 19.99 29.25 18.15 52.73&#10;  C 18.02 54.37 18.38 55.45 19.87 56.32&#10;  C 32.71 63.86 49.01 63.45 62.03 56.71&#10;  C 63.70 55.85 64.12 55.09 64.01 53.26&#10;  Q 62.55 30.07 44.06 17.19&#10;  Z&#10;  M 43.69 67.47&#10;  L 45.03 67.57&#10;  Q 46.24 68.59 46.93 67.69&#10;  A 1.93 1.92 -63.1 0 0 45.94 64.66&#10;  Q 45.39 64.50 44.93 65.22&#10;  Q 43.79 65.75 44.07 65.27&#10;  Q 41.36 64.05 38.89 64.97&#10;  A 1.30 1.30 0.0 0 0 39.35 67.48&#10;  L 43.69 67.47&#10;  Z&#10;  M 36.8200 68.0068&#10;  A 1.55 0.91 86.3 0 0 37.6281 66.4013&#10;  A 1.55 0.91 86.3 0 0 36.6200 64.9132&#10;  A 1.55 0.91 86.3 0 0 35.8119 66.5187&#10;  A 1.55 0.91 86.3 0 0 36.8200 68.0068&#10;  Z"/>
<path fill="#e3bfc4" fill-opacity="0.996" d="&#10;  M 63.03 15.73&#10;  Q 63.87 15.05 65.11 15.15&#10;  A 0.91 0.86 -54.9 0 0 65.59 15.05&#10;  Q 66.74 14.40 68.01 14.50&#10;  Q 68.47 14.54 68.50 15.01&#10;  Q 68.61 16.53 67.52 17.61&#10;  Q 67.18 17.95 67.34 18.40&#10;  L 68.06 20.39&#10;  Q 68.27 20.96 67.66 20.94&#10;  C 64.14 20.80 67.15 16.51 63.23 16.34&#10;  Q 62.32 16.31 63.03 15.73&#10;  Z"/>
<path fill="#c22f33" d="&#10;  M 44.06 17.19&#10;  Q 62.55 30.07 64.01 53.26&#10;  C 64.12 55.09 63.70 55.85 62.03 56.71&#10;  C 49.01 63.45 32.71 63.86 19.87 56.32&#10;  C 18.38 55.45 18.02 54.37 18.15 52.73&#10;  Q 19.99 29.25 39.15 16.51&#10;  C 41.39 15.03 42.23 15.91 44.06 17.19&#10;  Z&#10;  M 21.19 54.93&#10;  C 33.48 61.55 48.55 61.43 60.88 55.15&#10;  Q 62.28 54.44 62.14 52.78&#10;  Q 60.34 30.40 42.21 18.29&#10;  A 2.03 2.03 0.0 0 0 39.94 18.30&#10;  Q 21.74 30.67 20.10 52.93&#10;  A 2.10 2.10 0.0 0 0 21.19 54.93&#10;  Z"/>
<path fill="#ffffff" d="&#10;  M 60.88 55.15&#10;  C 48.55 61.43 33.48 61.55 21.19 54.93&#10;  A 2.10 2.10 0.0 0 1 20.10 52.93&#10;  Q 21.74 30.67 39.94 18.30&#10;  A 2.03 2.03 0.0 0 1 42.21 18.29&#10;  Q 60.34 30.40 62.14 52.78&#10;  Q 62.28 54.44 60.88 55.15&#10;  Z&#10;  M 22.49 54.00&#10;  C 28.08 56.90 34.72 57.52 40.66 55.30&#10;  Q 41.11 55.13 41.56 55.29&#10;  Q 51.11 58.63 60.00 53.87&#10;  Q 60.49 53.61 60.51 53.05&#10;  C 60.75 45.64 57.58 41.01 52.69 35.77&#10;  Q 52.36 35.41 52.25 34.94&#10;  Q 50.15 25.39 42.24 19.73&#10;  A 1.81 1.79 -44.1 0 0 40.19 19.71&#10;  Q 32.04 25.20 30.11 34.87&#10;  A 1.78 1.76 -16.0 0 1 29.56 35.85&#10;  Q 22.33 42.43 21.54 52.28&#10;  A 1.79 1.79 0.0 0 0 22.49 54.00&#10;  Z"/>
<path fill="#c0171c" d="&#10;  M 40.66 55.30&#10;  C 34.72 57.52 28.08 56.90 22.49 54.00&#10;  A 1.79 1.79 0.0 0 1 21.54 52.28&#10;  Q 22.33 42.43 29.56 35.85&#10;  A 1.78 1.76 -16.0 0 0 30.11 34.87&#10;  Q 32.04 25.20 40.19 19.71&#10;  A 1.81 1.79 -44.1 0 1 42.24 19.73&#10;  Q 50.15 25.39 52.25 34.94&#10;  Q 52.36 35.41 52.69 35.77&#10;  C 57.58 41.01 60.75 45.64 60.51 53.05&#10;  Q 60.49 53.61 60.00 53.87&#10;  Q 51.11 58.63 41.56 55.29&#10;  Q 41.11 55.13 40.66 55.30&#10;  Z&#10;  M 48.49 35.24&#10;  A 0.35 0.35 0.0 0 0 48.85 34.64&#10;  Q 46.23 32.42 42.87 31.53&#10;  A 0.84 0.84 0.0 0 1 42.25 30.72&#10;  L 42.25 25.98&#10;  A 1.16 1.16 0.0 0 0 40.01 25.54&#10;  C 39.62 26.50 40.15 29.23 39.88 31.04&#10;  Q 39.81 31.53 39.32 31.63&#10;  Q 36.14 32.31 33.64 34.39&#10;  A 0.40 0.40 0.0 0 0 34.03 35.07&#10;  Q 41.29 32.31 48.49 35.24&#10;  Z&#10;  M 50.92 45.52&#10;  Q 52.23 42.40 51.41 39.16&#10;  A 0.37 0.37 0.0 0 0 50.69 39.20&#10;  Q 49.55 46.91 43.55 51.80&#10;  A 0.54 0.54 0.0 0 0 44.20 52.67&#10;  L 49.91 48.75&#10;  A 0.50 0.50 0.0 0 1 50.42 48.73&#10;  L 54.98 51.30&#10;  A 0.84 0.84 0.0 0 0 56.22 50.73&#10;  Q 56.42 49.75 55.14 49.14&#10;  Q 52.94 48.08 51.13 46.45&#10;  Q 50.69 46.06 50.92 45.52&#10;  Z&#10;  M 32.78 48.80&#10;  C 34.56 50.37 36.79 52.27 38.94 52.59&#10;  A 0.25 0.25 0.0 0 0 39.13 52.15&#10;  Q 32.98 47.22 31.60 39.42&#10;  A 0.49 0.49 0.0 0 0 30.64 39.42&#10;  Q 30.05 42.46 31.22 45.25&#10;  A 1.29 1.29 0.0 0 1 30.74 46.83&#10;  Q 28.73 48.14 26.67 49.47&#10;  Q 25.02 50.53 26.99 51.25&#10;  A 0.96 0.95 39.6 0 0 27.81 51.18&#10;  L 31.91 48.73&#10;  A 0.74 0.74 0.0 0 1 32.78 48.80&#10;  Z"/>
<path fill="#e3bfc4" fill-opacity="0.996" d="&#10;  M 11.67 27.05&#10;  C 10.08 27.44 9.84 25.72 8.47 25.77&#10;  Q 7.37 25.82 6.57 27.33&#10;  L 6.03 27.23&#10;  A 0.43 0.43 0.0 0 1 5.73 26.61&#10;  L 8.41 21.54&#10;  A 0.35 0.35 0.0 0 1 9.06 21.63&#10;  L 9.56 23.93&#10;  A 0.77 0.76 79.1 0 0 10.44 24.53&#10;  L 13.27 24.04&#10;  A 0.27 0.27 0.0 0 1 13.53 24.46&#10;  L 11.67 27.05&#10;  Z"/>
<path fill="#fde8e9" d="&#10;  M 48.49 35.24&#10;  Q 41.29 32.31 34.03 35.07&#10;  A 0.40 0.40 0.0 0 1 33.64 34.39&#10;  Q 36.14 32.31 39.32 31.63&#10;  Q 39.81 31.53 39.88 31.04&#10;  C 40.15 29.23 39.62 26.50 40.01 25.54&#10;  A 1.16 1.16 0.0 0 1 42.25 25.98&#10;  L 42.25 30.72&#10;  A 0.84 0.84 0.0 0 0 42.87 31.53&#10;  Q 46.23 32.42 48.85 34.64&#10;  A 0.35 0.35 0.0 0 1 48.49 35.24&#10;  Z"/>
<path fill="#c22f33" d="&#10;  M 11.67 27.05&#10;  L 10.82 28.96&#10;  Q 9.85 26.69 7.45 27.96&#10;  Q 7.09 28.00 6.57 27.33&#10;  Q 7.37 25.82 8.47 25.77&#10;  C 9.84 25.72 10.08 27.44 11.67 27.05&#10;  Z"/>
<path fill="#e3bfc4" fill-opacity="0.996" d="&#10;  M 10.82 28.96&#10;  Q 10.74 29.91 10.32 30.28&#10;  Q 9.90 30.65 9.21 30.19&#10;  Q 8.03 29.40 7.45 27.96&#10;  Q 9.85 26.69 10.82 28.96&#10;  Z"/>
<circle fill="#e59e9f" cx="5.84" cy="35.01" r="1.11"/>
<ellipse fill="#e59e9f" cx="0.00" cy="0.00" transform="translate(76.29,34.96) rotate(12.3)" rx="1.20" ry="1.03"/>
<path fill="#fde8e9" d="&#10;  M 51.13 46.45&#10;  Q 52.94 48.08 55.14 49.14&#10;  Q 56.42 49.75 56.22 50.73&#10;  A 0.84 0.84 0.0 0 1 54.98 51.30&#10;  L 50.42 48.73&#10;  A 0.50 0.50 0.0 0 0 49.91 48.75&#10;  L 44.20 52.67&#10;  A 0.54 0.54 0.0 0 1 43.55 51.80&#10;  Q 49.55 46.91 50.69 39.20&#10;  A 0.37 0.37 0.0 0 1 51.41 39.16&#10;  Q 52.23 42.40 50.92 45.52&#10;  Q 50.69 46.06 51.13 46.45&#10;  Z"/>
<path fill="#fde8e9" d="&#10;  M 38.94 52.59&#10;  C 36.79 52.27 34.56 50.37 32.78 48.80&#10;  A 0.74 0.74 0.0 0 0 31.91 48.73&#10;  L 27.81 51.18&#10;  A 0.96 0.95 39.6 0 1 26.99 51.25&#10;  Q 25.02 50.53 26.67 49.47&#10;  Q 28.73 48.14 30.74 46.83&#10;  A 1.29 1.29 0.0 0 0 31.22 45.25&#10;  Q 30.05 42.46 30.64 39.42&#10;  A 0.49 0.49 0.0 0 1 31.60 39.42&#10;  Q 32.98 47.22 39.13 52.15&#10;  A 0.25 0.25 0.0 0 1 38.94 52.59&#10;  Z"/>
<path fill="#db7274" d="&#10;  M 8.54 50.63&#10;  Q 6.87 50.80 4.94 52.68&#10;  L 3.63 42.64&#10;  A 0.61 0.60 82.7 0 1 4.14 41.97&#10;  L 6.12 41.70&#10;  Q 6.82 41.60 6.96 42.31&#10;  L 8.54 50.63&#10;  Z"/>
<path fill="#db7274" d="&#10;  M 75.64 56.18&#10;  L 73.02 54.93&#10;  Q 73.08 53.30 74.10 52.30&#10;  Q 74.40 51.99 74.44 51.56&#10;  L 75.23 42.92&#10;  Q 75.31 42.03 76.14 42.34&#10;  L 78.05 43.05&#10;  A 0.59 0.59 0.0 0 1 78.05 44.15&#10;  L 76.23 44.84&#10;  A 0.55 0.54 51.7 0 0 76.12 45.80&#10;  L 77.43 46.68&#10;  Q 77.88 46.98 77.65 47.48&#10;  Q 77.37 48.12 76.52 48.21&#10;  A 0.52 0.52 0.0 0 0 76.15 49.03&#10;  Q 76.27 49.21 76.46 49.24&#10;  Q 77.15 49.37 76.99 50.06&#10;  L 75.64 56.18&#10;  Z"/>
<path fill="#c22f33" d="&#10;  M 8.54 50.63&#10;  Q 8.97 51.52 8.65 52.47&#10;  Q 7.15 52.28 6.09 55.72&#10;  L 4.94 52.68&#10;  Q 6.87 50.80 8.54 50.63&#10;  Z"/>
<path fill="#db7274" d="&#10;  M 8.65 52.47&#10;  Q 8.96 52.77 9.11 53.30&#10;  Q 8.76 54.94 7.47 56.49&#10;  Q 7.05 57.00 7.52 57.46&#10;  Q 8.46 58.36 10.49 56.25&#10;  L 15.35 64.26&#10;  Q 13.81 65.30 12.83 66.89&#10;  Q 7.74 61.67 6.09 55.72&#10;  Q 7.15 52.28 8.65 52.47&#10;  Z"/>
<path fill="#c22f33" d="&#10;  M 9.11 53.30&#10;  Q 10.20 54.59 10.49 56.25&#10;  Q 8.46 58.36 7.52 57.46&#10;  Q 7.05 57.00 7.47 56.49&#10;  Q 8.76 54.94 9.11 53.30&#10;  Z"/>
<path fill="#e59e9f" d="&#10;  M 73.02 54.93&#10;  L 75.64 56.18&#10;  Q 75.20 57.63 74.52 58.03&#10;  L 72.12 56.35&#10;  L 73.02 54.93&#10;  Z"/>
<path fill="#c22f33" d="&#10;  M 72.12 56.35&#10;  L 74.52 58.03&#10;  Q 74.63 59.04 74.00 59.30&#10;  Q 72.61 59.26 71.24 58.11&#10;  L 72.12 56.35&#10;  Z"/>
<path fill="#db7274" d="&#10;  M 71.24 58.11&#10;  Q 72.61 59.26 74.00 59.30&#10;  Q 74.13 60.87 72.50 61.53&#10;  L 70.37 59.53&#10;  L 71.24 58.11&#10;  Z"/>
<path fill="#c22f33" d="&#10;  M 70.37 59.53&#10;  L 72.50 61.53&#10;  Q 72.50 61.89 72.12 62.39&#10;  Q 69.68 61.25 68.31 62.56&#10;  L 70.37 59.53&#10;  Z"/>
<path fill="#db7274" d="&#10;  M 72.12 62.39&#10;  C 69.58 66.81 66.60 68.49 64.59 71.66&#10;  Q 64.30 72.12 63.77 72.25&#10;  Q 61.62 72.74 60.69 70.54&#10;  Q 60.49 70.06 60.92 69.77&#10;  Q 65.35 66.76 68.31 62.56&#10;  Q 69.68 61.25 72.12 62.39&#10;  Z"/>
<path fill="#c22f33" d="&#10;  M 15.35 64.26&#10;  Q 15.98 64.73 16.15 65.15&#10;  L 14.51 68.57&#10;  L 12.83 66.89&#10;  Q 13.81 65.30 15.35 64.26&#10;  Z"/>
<path fill="#db7274" d="&#10;  M 44.07 65.27&#10;  Q 44.29 66.59 43.69 67.47&#10;  L 39.35 67.48&#10;  A 1.30 1.30 0.0 0 1 38.89 64.97&#10;  Q 41.36 64.05 44.07 65.27&#10;  Z"/>
<path fill="#e59e9f" d="&#10;  M 45.03 67.57&#10;  Q 45.58 66.63 44.93 65.22&#10;  Q 45.39 64.50 45.94 64.66&#10;  A 1.93 1.92 -63.1 0 1 46.93 67.69&#10;  Q 46.24 68.59 45.03 67.57&#10;  Z"/>
<ellipse fill="#e59e9f" cx="0.00" cy="0.00" transform="translate(36.72,66.46) rotate(86.3)" rx="1.55" ry="0.91"/>
<path fill="#db7274" d="&#10;  M 16.15 65.15&#10;  L 18.01 67.67&#10;  A 1.49 1.49 0.0 0 1 15.87 69.70&#10;  L 14.51 68.57&#10;  L 16.15 65.15&#10;  Z"/>
<path fill="#e3bfc4" fill-opacity="0.996" d="&#10;  M 44.93 65.22&#10;  Q 45.58 66.63 45.03 67.57&#10;  L 43.69 67.47&#10;  Q 44.29 66.59 44.07 65.27&#10;  Q 43.79 65.75 44.93 65.22&#10;  Z"/>
<path fill="#db7274" d="&#10;  M 29.24 75.10&#10;  L 28.94 77.79&#10;  Q 28.88 78.33 28.41 78.05&#10;  Q 26.82 77.12 25.21 76.32&#10;  C 23.35 75.40 22.40 73.67 19.95 73.33&#10;  Q 19.22 73.23 19.65 72.63&#10;  L 21.30 70.30&#10;  Q 21.68 69.76 22.17 70.20&#10;  Q 25.01 72.78 28.66 74.16&#10;  A 0.91 0.91 0.0 0 1 29.24 75.10&#10;  Z"/>
<path fill="#db7274" d="&#10;  M 57.53 74.40&#10;  L 58.72 75.05&#10;  Q 59.41 75.43 58.67 75.69&#10;  L 46.02 80.30&#10;  Q 45.20 80.60 45.22 79.73&#10;  L 45.26 78.08&#10;  Q 45.27 77.71 44.95 77.54&#10;  L 43.98 77.01&#10;  A 0.65 0.65 0.0 0 0 43.04 77.45&#10;  Q 42.77 78.77 43.73 79.60&#10;  A 0.37 0.37 0.0 0 1 43.37 80.24&#10;  Q 42.69 80.03 42.01 80.07&#10;  A 1.68 1.68 0.0 0 1 41.58 76.75&#10;  C 47.08 75.63 52.81 75.33 57.74 71.79&#10;  A 0.29 0.29 0.0 0 1 58.17 72.16&#10;  L 57.34 73.81&#10;  Q 57.15 74.19 57.53 74.40&#10;  Z"/>
<path fill="#db7274" d="&#10;  M 37.21 79.78&#10;  Q 35.92 79.65 34.70 79.56&#10;  A 0.65 0.65 0.0 0 1 34.20 78.55&#10;  Q 35.17 77.05 33.70 76.39&#10;  A 0.76 0.75 -65.2 0 0 32.71 76.76&#10;  L 31.80 78.66&#10;  A 0.37 0.37 0.0 0 1 31.10 78.55&#10;  L 30.74 75.54&#10;  Q 30.69 75.15 31.08 75.21&#10;  L 38.96 76.43&#10;  A 0.57 0.56 2.6 0 1 39.44 76.95&#10;  L 39.64 79.42&#10;  Q 39.68 79.91 39.20 79.99&#10;  Q 38.55 80.10 37.93 79.92&#10;  Q 37.57 79.82 37.21 79.78&#10;  Z"/>
</svg>